<?xml version="1.0" encoding="utf-8"?>
<!-- Generator: Adobe Illustrator 18.0.0, SVG Export Plug-In . SVG Version: 6.00 Build 0)  -->
<!DOCTYPE svg PUBLIC "-//W3C//DTD SVG 1.1//EN" "http://www.w3.org/Graphics/SVG/1.1/DTD/svg11.dtd">
<svg version="1.1" id="Layer_1" xmlns="http://www.w3.org/2000/svg" xmlns:xlink="http://www.w3.org/1999/xlink" x="0px" y="0px"
	 viewBox="62.9 2.1 236.6 35.6" enable-background="new 62.9 2.1 236.6 35.6" xml:space="preserve">
<g>
	<path stroke="#000000" stroke-width="1.1404" stroke-miterlimit="10" d="M82,2.7c5,0,8.9,2,11.4,4.1l-3,2.7
		c-2.2-1.8-4.8-3.1-8.3-3.1c-8,0-13.3,5.2-13.3,13.4c0,8.4,5.1,13.7,13,13.7c3.9,0,6.9-1.3,9.6-3.7l3,2.5c-3.2,3-7.4,4.8-12.7,4.8
		c-10.5,0-18.3-6.3-18.3-17.2C63.5,9.2,71.4,2.7,82,2.7z"/>
</g>
<g>
	<path id="AWS" d="M73.6,15l7.6,2.3v10.3l-7.6-2.4 M83.2,27.7l7.7-2.4v-10l-7.7,2.1 M82.2,16.1l7-2.1l-7-2l-7.1,2"/>
</g>
<g>
	<path fill="#FFFFFF" stroke="#FFFFFF" stroke-width="7.708617e-02" stroke-miterlimit="10" d="M86.3,21.3l-2.8-2.5l1.5-0.5l1.5,1.5
		l0.3,0.3l0.1-0.6l0.5-2l1.4-0.5l-0.9,3.7l2.9,2.7L89.3,24l-1.5-1.5L87.3,22l-0.1,0.6l-0.5,2.1l-1.4,0.5L86.3,21.3z"/>
</g>
<g>
	<path d="M110.7,19.5c0,6.2-4.3,8.9-8.3,8.9c-4.5,0-8.1-3.3-8.1-8.6c0-5.6,3.7-8.9,8.3-8.9C107.5,11,110.7,14.4,110.7,19.5z
		 M97.5,19.7c0,3.7,2.1,6.5,5.1,6.5c2.9,0,5.1-2.8,5.1-6.5c0-2.9-1.4-6.5-5-6.5C99,13.1,97.5,16.5,97.5,19.7z"/>
	<path d="M114.5,15.8c0-1.7,0-3.1-0.1-4.5h2.7l0.2,2.8h0.1c0.8-1.6,2.8-3.1,5.5-3.1c2.3,0,5.9,1.4,5.9,7.1v10h-3v-9.7
		c0-2.7-1-5-3.9-5c-2,0-3.6,1.4-4,3.1c-0.1,0.3-0.2,0.9-0.2,1.4v10h-3V15.8H114.5z"/>
	<path d="M137.2,6.5v4.8h4.4v2.3h-4.4v9c0,2.1,0.6,3.2,2.3,3.2c0.8,0,1.4-0.1,1.7-0.2l0.1,2.3c-0.6,0.2-1.5,0.5-2.7,0.5
		c-1.4,0-2.5-0.5-3.2-1.3c-0.9-0.9-1.2-2.4-1.2-4.4v-9.1h-2.5v-2.3h2.5v-4L137.2,6.5z"/>
	<path d="M154.3,28l-0.2-2.1h-0.1c-0.9,1.3-2.8,2.5-5.1,2.5c-3.3,0-5.1-2.4-5.1-4.8c0-4,3.6-6.2,10-6.2v-0.3c0-1.4-0.3-3.9-3.8-3.9
		c-1.6,0-3.2,0.5-4.4,1.3l-0.7-2.1c1.4-0.9,3.3-1.5,5.5-1.5c5.1,0,6.3,3.5,6.3,6.8v6.2c0,1.5,0.1,2.9,0.2,4h-2.8V28z M153.8,19.5
		c-3.3-0.1-7,0.5-7,3.8c0,2,1.3,2.9,2.9,2.9c2.2,0,3.6-1.4,4-2.8c0.1-0.3,0.1-0.7,0.1-0.9V19.5z"/>
	<path d="M165.1,6.6c0,1-0.7,1.8-2,1.8c-1,0-1.8-0.8-1.8-1.8s0.8-1.8,1.8-1.8C164.4,4.7,165.1,5.5,165.1,6.6z M161.7,28V11.3h3V28
		H161.7z"/>
	<path d="M169.9,15.8c0-1.7,0-3.1-0.1-4.5h2.7l0.2,2.8l0,0c0.8-1.6,2.8-3.1,5.5-3.1c2.3,0,5.9,1.4,5.9,7.1v10h-3v-9.7
		c0-2.7-1-5-3.9-5c-2,0-3.6,1.4-4,3.1c-0.1,0.3-0.2,0.9-0.2,1.4v10h-3C169.9,28,169.9,15.8,169.9,15.8z"/>
</g>
<g>
	<path fill="#4D4D4D" d="M216.4,16c1.1,0,1.9,0.3,2.5,1c0.6,0.7,0.9,1.8,0.9,3.1c0,1.4-0.3,2.4-0.9,3.1c-0.6,0.6-1.4,1-2.5,1
		c-1.1,0-1.9-0.3-2.5-1c-0.6-0.7-0.9-1.8-0.9-3.1c0-1.4,0.3-2.4,0.9-3.1C214.4,16.4,215.3,16,216.4,16z M216.4,17.2
		c-0.6,0-1.1,0.2-1.5,0.8c-0.4,0.6-0.5,1.3-0.5,2.3s0.2,1.8,0.5,2.3s0.8,0.8,1.5,0.8c0.6,0,1.2-0.2,1.5-0.8c0.3-0.6,0.5-1.3,0.5-2.3
		c0-1-0.2-1.8-0.5-2.3C217.6,17.5,217.1,17.2,216.4,17.2z"/>
	<path fill="#4D4D4D" d="M223.4,23.2v4h-1.3V16.3h1.3v1c0.2-0.4,0.5-0.7,0.9-0.9c0.4-0.2,0.8-0.3,1.3-0.3c1,0,1.7,0.4,2.3,1.1
		c0.6,0.7,0.8,1.8,0.8,3.1s-0.2,2.3-0.8,3.1c-0.6,0.7-1.3,1.1-2.3,1.1c-0.5,0-0.9-0.1-1.3-0.3C223.8,23.9,223.6,23.5,223.4,23.2z
		 M227.2,20.2c0-1-0.2-1.8-0.5-2.3c-0.3-0.5-0.8-0.8-1.4-0.8s-1.1,0.2-1.4,0.8c-0.3,0.6-0.5,1.3-0.5,2.3s0.2,1.8,0.5,2.3
		c0.3,0.5,0.8,0.8,1.4,0.8s1.1-0.2,1.4-0.8C227.1,21.9,227.2,21.2,227.2,20.2z"/>
	<path fill="#4D4D4D" d="M237.4,19.6v0.6h-5.6v0.1c0,1,0.2,1.9,0.6,2.3c0.5,0.5,1,0.7,1.9,0.7c0.4,0,0.9-0.1,1.3-0.2
		c0.4-0.1,1-0.3,1.4-0.6v1.3c-0.5,0.2-1,0.3-1.4,0.5c-0.5,0.2-0.9,0.2-1.4,0.2c-1.2,0-2.2-0.4-2.9-1.1c-0.7-0.7-1-1.9-1-3.2
		s0.3-2.3,1-3.1c0.7-0.8,1.6-1.1,2.7-1.1c1,0,1.8,0.3,2.4,1S237.4,18.6,237.4,19.6z M236.1,19.2c-0.1-0.6-0.2-1-0.6-1.4
		c-0.3-0.4-0.8-0.6-1.4-0.6s-1.1,0.2-1.5,0.6c-0.4,0.4-0.6,0.9-0.6,1.4H236.1z"/>
	<path fill="#4D4D4D" d="M245.6,19.2v4.9h-1.3v-4.9c0-0.7-0.2-1.2-0.4-1.6c-0.2-0.4-0.6-0.5-1.2-0.5c-0.6,0-1,0.2-1.4,0.6
		c-0.3,0.4-0.5,1-0.5,1.9v4.5h-1.3v-7.9h1.3v1.2c0.2-0.5,0.6-0.8,1-1c0.4-0.2,0.9-0.3,1.4-0.3c0.8,0,1.4,0.2,1.8,0.8
		C245.3,17.5,245.6,18.2,245.6,19.2z"/>
	<path fill="#4D4D4D" d="M253.8,16.5v1.3c-0.4-0.2-0.7-0.4-1.1-0.5c-0.4-0.1-0.7-0.2-1.1-0.2c-0.6,0-1,0.1-1.3,0.3
		c-0.3,0.2-0.4,0.5-0.4,0.9c0,0.3,0.1,0.6,0.3,0.8c0.2,0.2,0.7,0.3,1.6,0.5l0.6,0.1c0.6,0.2,1.1,0.4,1.4,0.7
		c0.3,0.4,0.5,0.9,0.5,1.4c0,0.8-0.2,1.4-0.8,1.9s-1.4,0.6-2.3,0.6c-0.4,0-0.8-0.1-1.2-0.2c-0.4-0.1-0.9-0.2-1.4-0.4v-1.4
		c0.5,0.2,1,0.4,1.4,0.6c0.4,0.2,0.9,0.2,1.3,0.2c0.6,0,1-0.1,1.4-0.3c0.3-0.2,0.5-0.6,0.5-1c0-0.6-0.6-1-1.8-1.3h-0.1l-0.5-0.1
		c-0.7-0.2-1.3-0.4-1.6-0.7c-0.3-0.3-0.5-0.8-0.5-1.4c0-0.7,0.2-1.4,0.8-1.8c0.5-0.4,1.2-0.6,2.2-0.6c0.4,0,0.8,0,1.2,0.1
		C253.2,16.1,253.4,16.4,253.8,16.5z"/>
	<path fill="#4D4D4D" d="M260,16c1.1,0,1.9,0.3,2.5,1s0.9,1.8,0.9,3.1c0,1.4-0.3,2.4-0.9,3.1c-0.6,0.6-1.4,1-2.5,1
		c-1.1,0-1.9-0.3-2.5-1c-0.6-0.7-0.9-1.8-0.9-3.1c0-1.4,0.3-2.4,0.9-3.1C258,16.4,258.8,16,260,16z M260,17.2
		c-0.6,0-1.1,0.2-1.5,0.8c-0.4,0.6-0.5,1.3-0.5,2.3s0.2,1.8,0.5,2.3c0.3,0.5,0.8,0.8,1.5,0.8c0.6,0,1.2-0.2,1.5-0.8
		c0.3-0.6,0.5-1.3,0.5-2.3c0-1-0.2-1.8-0.5-2.3C261.2,17.5,260.6,17.2,260,17.2z"/>
	<path fill="#4D4D4D" d="M265.8,21.2v-4.9h1.3v4.9c0,0.7,0.2,1.2,0.4,1.6c0.2,0.4,0.6,0.5,1.2,0.5c0.6,0,1-0.2,1.4-0.6
		c0.3-0.4,0.5-1,0.5-1.9v-4.5h1.3v7.9h-1.3V23c-0.2,0.5-0.6,0.8-1,1c-0.4,0.2-0.9,0.3-1.4,0.3c-0.8,0-1.4-0.2-1.8-0.8
		C266.1,23,265.8,22.2,265.8,21.2z"/>
	<path fill="#4D4D4D" d="M281.2,17.9c-0.2-0.2-0.6-0.4-0.9-0.5c-0.3-0.1-0.6-0.2-1-0.2c-0.8,0-1.4,0.2-1.9,0.7
		c-0.4,0.5-0.6,1.2-0.6,2.2v3.9h-1.3v-7.9h1.3v1.5c0.2-0.6,0.6-1,1-1.3c0.4-0.3,1-0.5,1.6-0.5c0.3,0,0.6,0,0.9,0.1s0.6,0.2,0.8,0.4
		L281.2,17.9L281.2,17.9z"/>
	<path fill="#4D4D4D" d="M289.3,23.8c-0.3,0.2-0.7,0.3-1,0.5c-0.3,0.2-0.7,0.2-1.1,0.2c-1.2,0-2.2-0.4-2.9-1.1c-0.7-0.7-1-1.8-1-3.1
		c0-1.3,0.3-2.3,1-3.1c0.7-0.7,1.6-1.1,2.9-1.1c0.4,0,0.7,0.1,1.1,0.2c0.4,0.1,0.7,0.2,1.1,0.5V18c-0.3-0.3-0.7-0.6-1-0.6
		c-0.3-0.2-0.7-0.2-1.2-0.2c-0.8,0-1.4,0.2-1.9,0.8s-0.6,1.3-0.6,2.3c0,1,0.2,1.7,0.6,2.3s1,0.8,1.9,0.8c0.5,0,0.9-0.1,1.2-0.2
		c0.3-0.2,0.7-0.3,1-0.6V23.8L289.3,23.8z"/>
	<path fill="#4D4D4D" d="M298.4,19.6v0.6h-5.6v0.1c0,1,0.2,1.9,0.6,2.3c0.5,0.5,1,0.7,1.9,0.7c0.4,0,0.9-0.1,1.3-0.2
		c0.4-0.1,1-0.3,1.4-0.6v1.3c-0.5,0.2-1,0.3-1.4,0.5c-0.5,0.1-0.9,0.2-1.4,0.2c-1.2,0-2.2-0.4-2.9-1.1c-0.7-0.7-1-1.8-1-3.1
		c0-1.3,0.3-2.3,1-3.1c0.7-0.8,1.6-1.1,2.7-1.1c1,0,1.8,0.3,2.4,1S298.4,18.6,298.4,19.6z M297.2,19.2c-0.1-0.6-0.2-1-0.6-1.4
		c-0.3-0.4-0.8-0.6-1.4-0.6s-1.1,0.2-1.5,0.6s-0.6,0.9-0.6,1.4H297.2z"/>
</g>
<g>
	<path d="M201.1,33.5l-3-5.5c-1.2-2.2-2-3.7-2.8-5.3h-0.1c-0.7,1.6-1.4,3.1-2.5,5.3l-2.8,5.5H184l8.3-14.2l-8-13.8h5.9l3,5.8
		c0.9,1.7,1.6,3.1,2.3,4.7h0.1c0.7-1.7,1.4-3,2.2-4.7l3-5.8h5.9l-8.2,13.6l8.5,14.3h-6V33.5z"/>
</g>
</svg>
