<?xml version="1.0" encoding="utf-8"?>
<!-- Generator: Adobe Illustrator 18.0.0, SVG Export Plug-In . SVG Version: 6.00 Build 0)  -->
<!DOCTYPE svg PUBLIC "-//W3C//DTD SVG 1.1//EN" "http://www.w3.org/Graphics/SVG/1.1/DTD/svg11.dtd">
<svg version="1.1" id="Capa_1" xmlns="http://www.w3.org/2000/svg" xmlns:xlink="http://www.w3.org/1999/xlink" x="0px" y="0px"
	 viewBox="200 53.7 560 452.5" enable-background="new 200 53.7 560 452.5" xml:space="preserve">
<g>
	<g>
		<path fill="#FFFFFF" d="M265.6,424.3c17.8-4.4,36.4-7.4,55.4-7.4c8.4,0,16.6,0.6,24.6,1.8c13.2,1.9,26.2,4.4,38.7,6.7
			c26.5,5,51.6,9.7,77.5,9.7c13,0,25.2-1.2,37.1-3.6c12.4-2.5,24.8-5.9,38-9.4c31.2-8.4,63.9-17.2,96.4-14.2
			c26.3,2.4,51.1,8.1,74.6,15l31.4-107c2.6-10-3.7-18.2-14.1-18.2h-48.5H290.4h-43.8c-10.4,0-17.5,8.3-15.9,18.6L265.6,424.3z"/>
		<rect x="357.6" y="241.5" fill="#FFFFFF" width="68.8" height="41.1"/>
		<rect x="442.1" y="241.5" fill="#CC0000" width="68.8" height="41.1"/>
		<rect x="273.2" y="241.5" fill="#FFFFFF" width="68.8" height="41.1"/>
		<rect x="357.6" y="185.2" fill="#CC0000" width="68.8" height="41.1"/>
		<rect x="273.2" y="185.2" fill="#FFFFFF" width="68.8" height="41.1"/>
		<rect x="442.1" y="185.2" fill="#FFFFFF" width="68.8" height="41.1"/>
		<rect x="357.6" y="128.8" fill="#FFFFFF" width="68.8" height="41.1"/>
		<rect x="273.2" y="128.8" fill="#CC0000" width="68.8" height="41.1"/>
		<path fill="#FFFFFF" d="M561,232.1h34.4h9.4v9.4v41.1h103.2v-99h21.1v-23.5h-21.1v-42.2h-42.2V53.7h-21.9v64.1H561v42.2h-21.1
			v23.5H561L561,232.1L561,232.1z M577.4,150.7v-14.1c0-2.6,2.1-4.7,4.7-4.7h14.1c2.6,0,4.7,2.1,4.7,4.7v14.1c0,2.6-2.1,4.7-4.7,4.7
			h-14.1C579.5,155.4,577.4,153.3,577.4,150.7z M671.3,150.7v-14.1c0-2.6,2.1-4.7,4.7-4.7h14.1c2.6,0,4.7,2.1,4.7,4.7v14.1
			c0,2.6-2.1,4.7-4.7,4.7H676C673.4,155.4,671.3,153.3,671.3,150.7z M624.4,150.7v-14.1c0-2.6,2.1-4.7,4.7-4.7h14.1
			c0.3,0,0.5,0.1,0.8,0.2c2.2,0.4,3.9,2.2,3.9,4.5v14.1c0,2.3-1.7,4.1-3.9,4.5c-0.3,0-0.5,0.2-0.8,0.2h-14.1
			C626.5,155.4,624.4,153.3,624.4,150.7z"/>
		<polygon fill="#FFFFFF" points="595.4,282.5 595.4,241.5 561,241.5 526.6,241.5 526.6,282.5 561,282.5 		"/>
		<path fill="#FFFFFF" d="M219.6,506.3c2.5,0,5.2-0.5,8-1.4c33.1-11.4,63.3-20.9,96.6-20.9c11.8,0,23.3,1.2,35,3.6
			c37.6,7.7,76.2,15.6,117.9,12.9c31.6-2.1,63.4-10.3,94-18.3c7.6-2,15.3-4,22.9-5.8c9.3-2.3,19.2-3.5,29.5-3.5
			c33.9,0,68.2,12.5,98.4,23.4l10.7,3.9c2.9,1,5.6,1.5,8.1,1.5c10.7,0,17.2-9.5,18.8-18.9c1.7-9.9-1.4-23.2-15.8-28.4
			c-13.2-4.7-26.9-9.4-41.1-13.6c-22.5-6.6-46.2-12-71.1-14.3c-29.5-2.7-60.1,5.6-89.8,13.6c-12.9,3.5-26.2,7.1-39.1,9.7
			c-13.2,2.7-26.6,4-40.8,4c-27.7,0-54.8-5.1-81-10c-12.3-2.3-25.1-4.7-38-6.6c-7.1-1-14.4-1.6-21.9-1.6c-16.7,0-33.4,2.7-49.6,6.6
			c-19.2,4.6-37.8,11-55.2,16.9c-14.3,4.9-17.5,18.1-15.9,27.8C202,496.6,208.6,506.3,219.6,506.3z"/>
	</g>
</g>
<text transform="matrix(1 0 0 1 619.5341 263.9686)" font-family="'Arial-Black'" font-size="106.9286">D</text>
</svg>
