<?xml version="1.0" encoding="utf-8"?>
<!-- Generator: Adobe Illustrator 18.0.0, SVG Export Plug-In . SVG Version: 6.00 Build 0)  -->
<!DOCTYPE svg PUBLIC "-//W3C//DTD SVG 1.1//EN" "http://www.w3.org/Graphics/SVG/1.1/DTD/svg11.dtd">
<svg version="1.1" id="Capa_1" xmlns="http://www.w3.org/2000/svg" xmlns:xlink="http://www.w3.org/1999/xlink" x="0px" y="0px"
	 viewBox="0 0 46.1 46.1" enable-background="new 0 0 46.1 46.1" xml:space="preserve">
<g>
	<path d="M23.1,0C10.3,0,0,10.3,0,23.1c0,12.7,10.3,23.1,23.1,23.1s23.1-10.3,23.1-23.1C46.1,10.3,35.8,0,23.1,0z M36.5,14.3
		l-8.2,3.3c-1.4-1.3-3.2-2.1-5.2-2.1c-1.9,0-3.6,0.7-4.9,1.8l-5.5-6.4C15.4,8.5,19.1,7,23.1,7C28.7,7,33.6,9.9,36.5,14.3z
		 M23.1,39.1c-4.8,0-9.1-2.1-12-5.4l6.4-5.6c1.4,1.6,3.4,2.6,5.7,2.6c3.8,0,6.9-2.8,7.5-6.4l8.4-3.4c0.1,0.7,0.2,1.4,0.2,2.2
		C39.1,31.9,31.9,39.1,23.1,39.1z"/>
</g>
<g>
	<path fill="#0068FF" d="M26,23.9c-0.1-1.1-0.1-2.5-0.1-3.5h0c-0.3,0.9-0.6,2-1,3.1l-1.4,3.9h-0.8l-1.3-3.9
		c-0.4-1.1-0.7-2.2-0.9-3.1h0c0,1-0.1,2.4-0.2,3.6l-0.2,3.5h-1l0.6-8.1h1.3l1.4,3.9c0.3,1,0.6,1.9,0.8,2.7h0
		c0.2-0.8,0.5-1.7,0.9-2.7l1.4-3.9h1.3l0.5,8.1h-1L26,23.9z"/>
</g>
</svg>
