<?xml version="1.0" encoding="utf-8"?>
<!-- Generator: Adobe Illustrator 18.0.0, SVG Export Plug-In . SVG Version: 6.00 Build 0)  -->
<!DOCTYPE svg PUBLIC "-//W3C//DTD SVG 1.1//EN" "http://www.w3.org/Graphics/SVG/1.1/DTD/svg11.dtd">
<svg version="1.1" id="Capa_1" xmlns="http://www.w3.org/2000/svg" xmlns:xlink="http://www.w3.org/1999/xlink" x="0px" y="0px"
	 viewBox="180 0 40 40" enable-background="new 180 0 40 40" xml:space="preserve">
<path fill="#FFFFFF" d="M213.2,9.7h3.8c1.6,0,2.9-1.3,2.9-2.9V2.9c0-1.6-1.3-2.9-2.9-2.9h-3.8c-1.6,0-2.9,1.3-2.9,2.9v0.9h-2.5
	c-1.5,0-2.7,1.2-2.7,2.7V19h-3.8c-0.5-5.4-5.1-9.7-10.6-9.7c-5.9,0-10.7,4.8-10.7,10.7c0,5.9,4.8,10.7,10.7,10.7
	c5.5,0,10.1-4.3,10.6-9.7h3.8v12.5c0,1.5,1.2,2.7,2.7,2.7h2.5v0.9c0,1.6,1.3,2.9,2.9,2.9h3.8c1.6,0,2.9-1.3,2.9-2.9v-3.8
	c0-1.6-1.3-2.9-2.9-2.9h-3.8c-1.6,0-2.9,1.3-2.9,2.9v0.9h-2.5c-0.4,0-0.6-0.3-0.6-0.6V21h3.1v0.9c0,1.6,1.3,2.9,2.9,2.9h3.8
	c1.6,0,2.9-1.3,2.9-2.9v-3.8c0-1.6-1.3-2.9-2.9-2.9h-3.8c-1.6,0-2.9,1.3-2.9,2.9V19h-3.1V6.5c0-0.4,0.3-0.6,0.6-0.6h2.5v0.9
	C210.2,8.4,211.6,9.7,213.2,9.7z M187.4,11.8c-0.6,0.8-1.2,1.9-1.5,3.1c-1.2,0.3-2.3,0.8-3.2,1.3C183.6,14.2,185.3,12.6,187.4,11.8z
	 M181.9,18.8c0.6-0.9,1.9-1.7,3.5-2.3c-0.2,0.9-0.3,1.8-0.3,2.8h-3.2C181.8,19.2,181.9,19,181.9,18.8z M181.9,21.4
	c0-0.2-0.1-0.4-0.1-0.6h3.2c0,1,0.1,1.9,0.3,2.8C183.8,23.1,182.5,22.3,181.9,21.4z M182.8,24c0.9,0.5,1.9,1,3.1,1.3
	c0.4,1.1,0.8,2.1,1.4,2.9C185.3,27.3,183.7,25.8,182.8,24z M190,28.8c-0.9-0.4-1.9-1.5-2.5-3.1c0.8,0.1,1.6,0.2,2.5,0.2V28.8z
	 M190,24.4c-1.1,0-2.1-0.2-3-0.4c-0.2-1-0.4-2.1-0.4-3.3h3.4V24.4z M190,19.4h-3.4c0-1.2,0.2-2.3,0.4-3.3c0.9-0.2,1.9-0.3,3-0.4
	L190,19.4L190,19.4z M190,14.3c-0.9,0-1.7,0.1-2.5,0.2c0.7-1.7,1.6-2.8,2.5-3.1V14.3z M198.7,16.3c-0.9-0.6-2-1-3.2-1.3
	c-0.4-1.2-0.9-2.3-1.5-3.1C196.1,12.6,197.8,14.2,198.7,16.3z M191.4,11.4c0.9,0.4,1.9,1.5,2.5,3.1c-0.8-0.1-1.6-0.2-2.5-0.2V11.4z
	 M191.4,15.7c1.1,0,2.1,0.2,3,0.4c0.2,1,0.4,2.1,0.4,3.3h-3.4V15.7z M191.4,20.8h3.4c0,1.2-0.2,2.3-0.4,3.3c-0.9,0.2-1.9,0.3-3,0.4
	C191.4,24.4,191.4,20.8,191.4,20.8z M191.4,28.8v-2.9c0.9,0,1.7-0.1,2.5-0.2C193.3,27.3,192.3,28.4,191.4,28.8z M194.2,28.1
	c0.5-0.8,1-1.8,1.4-2.9c1.2-0.3,2.2-0.8,3.1-1.3C197.7,25.8,196.1,27.3,194.2,28.1z M199.4,21.4c-0.6,0.9-1.9,1.7-3.5,2.2
	c0.2-0.9,0.3-1.8,0.3-2.8h3.2C199.5,21,199.5,21.2,199.4,21.4z M196.3,19.4c0-1-0.1-1.9-0.3-2.8c1.6,0.6,2.9,1.4,3.5,2.3
	c0,0.2,0,0.4,0.1,0.5H196.3z"/>
</svg>
