<?xml version="1.0" encoding="utf-8"?>
<!-- Generator: Adobe Illustrator 18.0.0, SVG Export Plug-In . SVG Version: 6.00 Build 0)  -->
<!DOCTYPE svg PUBLIC "-//W3C//DTD SVG 1.1//EN" "http://www.w3.org/Graphics/SVG/1.1/DTD/svg11.dtd">
<svg version="1.1" id="Layer_1" xmlns="http://www.w3.org/2000/svg" xmlns:xlink="http://www.w3.org/1999/xlink" x="0px" y="0px"
	 viewBox="41 11 298.6 249" enable-background="new 41 11 298.6 249" xml:space="preserve">
<path d="M242.6,11c-0.1,0-0.3,0-0.4,0L106.7,22.8c-0.2,0-0.4,0.1-0.5,0.1c-0.1,0-0.3,0.1-0.4,0.1c-5.3,1-9.1,5.5-9.4,10.9V34
	l-0.1,34l7.2,7.1l-5.6,0.5l22,19.8l27.8-3.7l-4.7-4.6l7.4-0.7V80c0-3,2.5-5.6,5.4-5.8l63.9-5.6l0.1,48l7,7l-5,0.4l19.1,19.2
	l30.8-2.7l-4.9-4.9l7-0.6l-0.1-49.7l-30.5,2.5l-23.6-21.3l1.6-1.7l22,19.8l28.3-3.4l-5-5l7.3-0.6l0.1-34c-0.4-3.4-2.6-6.2-5.5-7.3
	c-1.3-0.5-2.8-0.7-4.3-0.4l-4.9,0.9L138,45.6l-10.1-0.2c-3,0.1-6.2,1.6-8.3,4.3c1.3-3.1,4.3-5.8,8-6.7l10.1-2l121.4-10.5l5.2,0.1
	c1.1,0.1,2.2,0.3,3.3,0.7l-17.7-17.6C247.8,11.8,245.2,11,242.6,11z M96.1,75.8L96.1,75.8L96.1,75.8L96.1,75.8z M96.1,77.1l0.2,50.2
	l7,7l-6.8,0.6c6.1,5.8,16.8,16.2,21.1,19.1l31.3-2.8l3.7,3.3l-0.1,6.4c0,1.8,1.2,2.8,2.9,2.7l0,0l80.2-7c1.7-0.1,3.3-1.9,3.3-3.6
	v-8.5l-19.2-19.2v6.4c0,0.1,0,0.1,0,0.1c0.1,3-1.8,5.2-5.2,5.7c-21.4,1.9-42.8,3.7-64.3,5.6l-0.1-46.1L121.9,99l-4-2.2L96.1,77.1z
	 M96.3,137.7L96.2,170c0,2.6,1,4.9,2.8,6.8c7.7,6.7,15.2,14.9,22.1,21.8c1,1,3.8,2.4,7,2.2l135.4-11.9c5.7-0.5,10.3-5.5,10.3-11.2
	l0.1-32.8l-30.3,2.6v5.5l0,0c0,4.2-3.3,7.8-7.5,8.2l0,0l-80.2,7c-4.3,0.4-7.9-2.9-7.9-7.2l0.1-5l-30.1,2.7
	C117.9,157.5,98.6,139.9,96.3,137.7L96.3,137.7z"/>
<g>
	<path d="M71.7,230.2c0,10.7-7.4,15.4-14.5,15.4c-7.9,0-13.9-5.8-13.9-14.9c0-9.7,6.4-15.4,14.4-15.4
		C66.1,215.3,71.7,221.4,71.7,230.2z M48.7,230.5c0,6.4,3.7,11.2,8.8,11.2c5,0,8.8-4.7,8.8-11.3c0-4.9-2.5-11.2-8.7-11.2
		C51.4,219.3,48.7,225,48.7,230.5z"/>
	<path d="M78.4,225.4c0-3.7-0.1-6.7-0.2-9.5h4.7l0.2,5h0.1c2.2-3.5,5.6-5.6,10.3-5.6c7,0,12.3,5.9,12.3,14.8
		c0,10.4-6.4,15.6-13.2,15.6c-3.8,0-7.2-1.7-8.9-4.6h-0.1v15.8h-5.2V225.4z M83.6,233.2c0,0.8,0.1,1.5,0.2,2.2
		c1,3.7,4.1,6.2,7.9,6.2c5.6,0,8.8-4.6,8.8-11.2c0-5.8-3.1-10.8-8.6-10.8c-3.6,0-7,2.6-8,6.5c-0.2,0.7-0.4,1.4-0.4,2.2V233.2z"/>
	<path d="M115.4,231.4c0.1,7.1,4.7,10.1,10,10.1c3.8,0,6.1-0.7,8-1.5l0.9,3.8c-1.9,0.8-5,1.8-9.7,1.8c-8.9,0-14.3-5.9-14.3-14.6
		s5.2-15.7,13.6-15.7c9.5,0,12,8.3,12,13.7c0,1.1-0.1,1.9-0.2,2.5H115.4z M130.9,227.7c0.1-3.4-1.4-8.6-7.3-8.6
		c-5.3,0-7.7,4.9-8.1,8.6H130.9z"/>
	<path d="M142.6,223.8c0-3-0.1-5.5-0.2-7.9h4.7l0.3,4.8h0.1c1.4-2.8,4.8-5.5,9.6-5.5c4,0,10.3,2.4,10.3,12.4V245H162v-16.7
		c0-4.7-1.7-8.6-6.7-8.6c-3.5,0-6.2,2.5-7.1,5.4c-0.2,0.7-0.4,1.6-0.4,2.5V245h-5.3V223.8z"/>
	<path d="M175.1,239.6c1.6,1,4.3,2.1,7,2.1c3.8,0,5.6-1.9,5.6-4.3c0-2.5-1.5-3.9-5.4-5.3c-5.2-1.9-7.7-4.7-7.7-8.2
		c0-4.7,3.8-8.5,10-8.5c2.9,0,5.5,0.8,7.1,1.8l-1.3,3.8c-1.1-0.7-3.2-1.7-5.9-1.7c-3.1,0-4.9,1.8-4.9,4c0,2.4,1.7,3.5,5.5,4.9
		c5,1.9,7.6,4.4,7.6,8.8c0,5.1-4,8.7-10.9,8.7c-3.2,0-6.1-0.8-8.2-2L175.1,239.6z"/>
	<path d="M206,207.6v8.3h7.6v4H206v15.7c0,3.6,1,5.6,4,5.6c1.4,0,2.4-0.2,3.1-0.4l0.2,4c-1,0.4-2.6,0.7-4.7,0.7
		c-2.5,0-4.4-0.8-5.7-2.2c-1.5-1.6-2-4.1-2-7.6V220h-4.5v-4h4.5v-7L206,207.6z"/>
	<path d="M235.6,245l-0.4-3.7H235c-1.6,2.3-4.7,4.3-8.9,4.3c-5.9,0-8.9-4.1-8.9-8.3c0-7,6.2-10.9,17.5-10.8v-0.6
		c0-2.4-0.7-6.7-6.6-6.7c-2.7,0-5.5,0.8-7.6,2.2l-1.2-3.5c2.4-1.6,5.9-2.6,9.5-2.6c8.9,0,11,6.1,11,11.9V238c0,2.5,0.1,5,0.5,7
		H235.6z M234.8,230.2c-5.8-0.1-12.3,0.9-12.3,6.5c0,3.4,2.3,5,5,5c3.8,0,6.2-2.4,7-4.9c0.2-0.5,0.3-1.1,0.3-1.7V230.2z"/>
	<path d="M269.1,243.9c-1.4,0.7-4.4,1.7-8.3,1.7c-8.8,0-14.5-5.9-14.5-14.8c0-8.9,6.1-15.4,15.6-15.4c3.1,0,5.9,0.8,7.3,1.5
		l-1.2,4.1c-1.3-0.7-3.2-1.4-6.1-1.4c-6.7,0-10.3,4.9-10.3,11c0,6.7,4.3,10.9,10.1,10.9c3,0,5-0.8,6.5-1.4L269.1,243.9z"/>
	<path d="M280.5,229.3h0.1c0.7-1,1.7-2.3,2.6-3.3l8.5-10h6.4l-11.2,11.9l12.8,17.1h-6.4l-10-13.9l-2.7,3V245h-5.2v-42.6h5.2V229.3z"
		/>
	<path fill="#FF0000" d="M314,245v-7.4h-13.8v-4.8l11.8-19h8.9v18.3h3.7v5.5h-3.7v7.4H314z M314,232.1v-6.9c0-1.9,0.1-3.8,0.2-5.8
		H314c-1,2-1.8,3.8-2.9,5.8L307,232v0.1H314z"/>
	<path fill="#FF0000" d="M323.8,249.3c1.9-0.1,3.4-0.6,4.3-1.5c1.1-1.1,1.4-3,1.4-7.6v-18.6h7.3v20.4c0,5.1-1.2,8.3-3.3,10.3
		c-2.2,2-5.6,2.9-9.1,2.9L323.8,249.3z M337.1,215c0,2-1.5,3.6-3.9,3.6c-2.3,0-3.8-1.6-3.8-3.6c0-2.1,1.5-3.7,3.9-3.7
		C335.6,211.3,337,212.9,337.1,215z"/>
</g>
</svg>
