<?xml version="1.0" encoding="utf-8"?>
<!-- Generator: Adobe Illustrator 18.0.0, SVG Export Plug-In . SVG Version: 6.00 Build 0)  -->
<!DOCTYPE svg PUBLIC "-//W3C//DTD SVG 1.1//EN" "http://www.w3.org/Graphics/SVG/1.1/DTD/svg11.dtd">
<svg version="1.1" id="Capa_1" xmlns="http://www.w3.org/2000/svg" xmlns:xlink="http://www.w3.org/1999/xlink" x="0px" y="0px"
	 viewBox="180 2.5 40 35.1" enable-background="new 180 2.5 40 35.1" xml:space="preserve">
<g>
	<path fill="#FFFFFF" d="M214.7,14.7h-29.5c-2.9,0-5.3,2.4-5.3,5.3s2.4,5.3,5.3,5.3h19.7c0.9-1.7,2.6-2.8,4.7-2.8
		c0.4,0,0.9,0.1,1.3,0.2l0.8-0.4c0-0.2,0.1-0.4,0.2-0.6c-0.7-0.2-1.1-0.9-1.1-1.6c0-1,0.8-1.7,1.7-1.7c0.6,0,1.1,0.3,1.4,0.7
		c0.9-0.6,1.9-0.9,3-0.9c1.2,0,2.2,0.4,3.1,1C219.5,16.6,217.3,14.7,214.7,14.7z"/>
	<path d="M191.1,21.4h-4.8c-0.8,0-1.4-0.6-1.4-1.4c0-0.8,0.6-1.4,1.4-1.4h4.8c0.8,0,1.4,0.6,1.4,1.4
		C192.5,20.8,191.9,21.4,191.1,21.4z"/>
	<path fill="#FFFFFF" d="M212.1,34c-0.6-0.1-1.1-0.5-1.4-1.1l-0.1,0c-0.4,0.1-0.7,0.1-1.1,0.1c-2.9,0-5.3-2.4-5.3-5.3
		c0-0.2,0-0.4,0-0.7h-19.1c-2.9,0-5.3,2.4-5.3,5.3c0,2.9,2.4,5.3,5.3,5.3h29.5c0.7,0,1.3-0.1,1.9-0.4
		C214.7,37.1,212.9,35.8,212.1,34z"/>
	<path d="M191.1,33.6h-4.8c-0.8,0-1.4-0.6-1.4-1.4s0.6-1.4,1.4-1.4h4.8c0.8,0,1.4,0.6,1.4,1.4S191.9,33.6,191.1,33.6z"/>
	<path fill="#FFFFFF" d="M185.3,13h29.5c2.9,0,5.3-2.4,5.3-5.3s-2.4-5.3-5.3-5.3h-29.5c-2.9,0-5.3,2.4-5.3,5.3S182.4,13,185.3,13z"
		/>
	<path d="M212.4,6c1,0,1.7,0.8,1.7,1.7s-0.8,1.7-1.7,1.7s-1.7-0.8-1.7-1.7S211.5,6,212.4,6z"/>
	<path d="M186.4,6.4h4.8c0.8,0,1.4,0.6,1.4,1.4s-0.6,1.4-1.4,1.4h-4.8c-0.8,0-1.4-0.6-1.4-1.4S185.6,6.4,186.4,6.4z"/>
	<path fill="#D80027" stroke="#FFFFFF" stroke-miterlimit="10" d="M216.9,29.4c-0.8,0-1.5,0.4-2,1l-3.1-1.5c0.2-0.3,0.3-0.7,0.3-1.1
		c0-0.4-0.1-0.7-0.2-1l3.2-1.5c0.5,0.4,1.1,0.7,1.8,0.7c1.4,0,2.5-1.1,2.5-2.5s-1.1-2.5-2.5-2.5s-2.5,1.1-2.5,2.5
		c0,0.2,0,0.4,0.1,0.6l-3.4,1.6c-0.4-0.3-0.9-0.4-1.4-0.4c-1.4,0-2.5,1.1-2.5,2.5s1.1,2.5,2.5,2.5c0.5,0,0.9-0.1,1.3-0.3l3.6,1.7
		c0,0.1,0,0.2,0,0.3c0,1.4,1.1,2.5,2.5,2.5s2.5-1.1,2.5-2.5C219.5,30.5,218.3,29.4,216.9,29.4z"/>
</g>
</svg>
